# xmcd
#
# Track frame offsets:
#	150
#	16790
#	35672
#	53340
#	68710
#
# Disc length: 1137 seconds
#
# Revision: 4
# Processed by: cddbd v1.5.2PL0 Copyright (c) Steve Scherf et al.
# Submitted via: audiograbber 1.83.01
#
DISCID=32046f05
DTITLE=Debelah Morgan - Maxi
DYEAR=2001
DGENRE=R&B
TTITLE0=Dance With Me ( Album Version )
TTITLE1=Dance With Me ( Soul Central Version )
TTITLE2=Dance With Me ( Boom Boom Remix Version )
TTITLE3=Dance With Me ( JP Radio Version )
TTITLE4=Dance With Me ( Jack and Jill Version )
EXTD=YEAR: 2001 ID3G: 14
EXTT0=
EXTT1=
EXTT2=
EXTT3=
EXTT4=
PLAYORDER=
